<svg width="21" height="23" viewBox="0 0 21 23" fill="none" xmlns="http://www.w3.org/2000/svg">
<mask id="mask0_339_285" style="mask-type:luminance" maskUnits="userSpaceOnUse" x="-3" y="-2" width="27" height="27">
<path d="M-2.41992 -1.6361H23.4154V24.6426H-2.41992V-1.6361Z" fill="white"/>
</mask>
<g mask="url(#mask0_339_285)">
<path d="M20.8439 14.1845C20.433 12.4386 19.0597 11.029 17.4268 10.6783C16.1924 10.4127 14.9939 10.7502 13.9871 11.1144L13.3509 11.346C12.7163 11.5858 12.0603 11.8342 11.4144 11.9742C11.1383 12.0333 10.8707 12.058 10.5946 12.0489C9.78924 12.0276 8.96857 11.7381 8.07765 11.424C7.07653 11.0754 6.0411 10.7145 4.83491 10.641C3.80109 10.579 2.84276 10.8036 2.06569 11.2946C0.864746 12.0547 0.095337 13.4688 0.00773905 15.0788C-0.0528125 16.2424 0.243487 17.4291 0.842947 18.4211C1.86667 20.1124 3.56454 21.0149 5.09125 21.6751C7.21943 22.592 8.90236 23.001 10.549 23.001C10.6345 23.001 10.7201 23.0006 10.7859 22.9969C12.8196 22.9472 14.8045 22.1576 16.1209 21.5676C19.7782 19.9284 21.5439 17.1683 20.8439 14.1845Z" fill="white"/>
<path d="M10.4965 9.86133C13.1676 9.86133 15.3406 7.65105 15.3406 4.93408C15.3406 2.21711 13.1676 0.00682545 10.4965 0.00682545C7.82534 0.00682545 5.65234 2.21711 5.65234 4.93408C5.65234 7.65105 7.82534 9.86133 10.4965 9.86133Z" fill="white"/>
</g>
</svg>
