<svg width="33" height="33" viewBox="0 0 33 33" fill="none" xmlns="http://www.w3.org/2000/svg">
<g clip-path="url(#clip0_339_281)">
<mask id="mask0_339_281" style="mask-type:luminance" maskUnits="userSpaceOnUse" x="3" y="3" width="27" height="27">
<path d="M3.58008 3.3639H29.4154V29.6426H3.58008V3.3639Z" fill="white"/>
</mask>
<g mask="url(#mask0_339_281)">
<path d="M26.8439 19.1845C26.433 17.4386 25.0597 16.029 23.4268 15.6783C22.1924 15.4127 20.9939 15.7502 19.9871 16.1144L19.3509 16.346C18.7163 16.5858 18.0603 16.8342 17.4144 16.9742C17.1383 17.0333 16.8707 17.058 16.5946 17.0489C15.7892 17.0276 14.9686 16.7381 14.0777 16.424C13.0765 16.0754 12.0411 15.7145 10.8349 15.641C9.80109 15.579 8.84276 15.8036 8.06569 16.2946C6.86475 17.0547 6.09534 18.4688 6.00774 20.0788C5.94719 21.2424 6.24349 22.4291 6.84295 23.4211C7.86667 25.1124 9.56454 26.0149 11.0912 26.6751C13.2194 27.592 14.9024 28.001 16.549 28.001C16.6345 28.001 16.7201 28.0006 16.7859 27.9969C18.8196 27.9472 20.8045 27.1576 22.1209 26.5676C25.7782 24.9284 27.5439 22.1683 26.8439 19.1845Z" fill="white"/>
<path d="M16.4965 14.8613C19.1676 14.8613 21.3406 12.651 21.3406 9.93408C21.3406 7.21711 19.1676 5.00683 16.4965 5.00683C13.8253 5.00683 11.6523 7.21711 11.6523 9.93408C11.6523 12.651 13.8253 14.8613 16.4965 14.8613Z" fill="white"/>
</g>
</g>
<defs>
<clipPath id="clip0_339_281">
<rect width="21" height="23" fill="white" transform="translate(6 5)"/>
</clipPath>
</defs>
</svg>
